<svg width="35" height="35" viewBox="0 0 35 35" fill="none" xmlns="http://www.w3.org/2000/svg">
<g clip-path="url(#clip0_2340_3172)">
<path d="M17.5 30C24.4036 30 30 24.4036 30 17.5C30 10.5964 24.4036 5 17.5 5C10.5964 5 5 10.5964 5 17.5C5 24.4036 10.5964 30 17.5 30Z" fill="#2E3148"/>
<path d="M17.4999 24.753C21.5057 24.753 24.753 21.5057 24.753 17.4999C24.753 13.4941 21.5057 10.2468 17.4999 10.2468C13.4941 10.2468 10.2468 13.4941 10.2468 17.4999C10.2468 21.5057 13.4941 24.753 17.4999 24.753Z" fill="#1B1E36"/>
<path d="M17.5257 6.59473C16.1764 6.59473 15.0823 11.4887 15.0823 17.5258C15.0823 23.5629 16.1764 28.4569 17.5257 28.4569C18.875 28.4569 19.9691 23.5629 19.9691 17.5258C19.9691 11.4887 18.875 6.59473 17.5257 6.59473ZM17.6944 27.84C17.5401 28.0458 17.3858 27.8914 17.3858 27.8914C16.7644 27.1714 16.4537 25.8338 16.4537 25.8338C15.3668 22.3359 15.6255 14.8256 15.6255 14.8256C16.1363 8.86323 17.0655 7.45473 17.3817 7.14203C17.414 7.11011 17.4565 7.09061 17.5017 7.08695C17.547 7.08329 17.5921 7.09571 17.6291 7.12203C18.0879 7.44713 18.4727 8.80673 18.4727 8.80673C19.609 13.0248 19.5061 16.9857 19.5061 16.9857C19.609 20.4322 18.9367 24.2902 18.9367 24.2902C18.4192 27.2222 17.6944 27.84 17.6944 27.84Z" fill="#6F7390"/>
<path d="M27.0072 12.0858C26.3354 10.915 21.5463 12.4016 16.3072 15.4058C11.0681 18.41 7.37252 21.7947 8.04382 22.965C8.71512 24.1353 13.5047 22.6492 18.7438 19.645C23.9829 16.6408 27.6785 13.2561 27.0072 12.0858V12.0858ZM8.66362 22.8044C8.40642 22.772 8.46452 22.5606 8.46452 22.5606C8.78002 21.6635 9.78402 20.7283 9.78402 20.7283C12.2783 18.0447 18.9219 14.5318 18.9219 14.5318C24.3473 12.0076 26.0325 12.1141 26.46 12.2318C26.5039 12.2441 26.542 12.2714 26.5677 12.3091C26.5933 12.3468 26.6047 12.3923 26.6 12.4376C26.5486 12.9976 25.5583 14.0076 25.5583 14.0076C22.4671 17.0935 18.98 18.9757 18.98 18.9757C16.0417 20.7807 12.3607 22.1166 12.3607 22.1166C9.55982 23.1259 8.66372 22.8044 8.66372 22.8044H8.66362Z" fill="#6F7390"/>
<path d="M26.9834 23.0041C27.6604 21.8364 23.9741 18.4362 18.7534 15.4094C13.5327 12.3826 8.74422 10.8776 8.06782 12.0473C7.39142 13.217 11.0771 16.6152 16.3008 19.642C21.5245 22.6688 26.307 24.1739 26.9834 23.0041ZM8.51642 12.4985C8.41642 12.2614 8.62752 12.2043 8.62752 12.2043C9.56212 12.0278 10.8749 12.43 10.8749 12.43C14.4464 13.2433 20.8149 17.2325 20.8149 17.2325C25.7182 20.6636 26.4702 22.1749 26.5829 22.6039C26.5944 22.6479 26.5899 22.6945 26.5704 22.7356C26.5508 22.7766 26.5173 22.8094 26.4759 22.8282C25.9646 23.0623 24.5952 22.7135 24.5952 22.7135C20.3745 21.5818 16.999 19.5083 16.999 19.5083C13.9661 17.8725 10.9671 15.3555 10.9671 15.3555C8.68832 13.4368 8.51712 12.5011 8.51712 12.5011L8.51642 12.4985Z" fill="#6F7390"/>
<path d="M17.5001 18.7861C18.2103 18.7861 18.7861 18.2103 18.7861 17.5001C18.7861 16.7899 18.2103 16.2141 17.5001 16.2141C16.7899 16.2141 16.2141 16.7899 16.2141 17.5001C16.2141 18.2103 16.7899 18.7861 17.5001 18.7861Z" fill="#B7B9C8"/>
<path d="M22.7725 13.3332C23.1845 13.3332 23.5184 12.9878 23.5184 12.5616C23.5184 12.1355 23.1845 11.79 22.7725 11.79C22.3606 11.79 22.0266 12.1355 22.0266 12.5616C22.0266 12.9878 22.3606 13.3332 22.7725 13.3332Z" fill="#B7B9C8"/>
<path d="M10.5298 15.9568C10.9418 15.9568 11.2757 15.6113 11.2757 15.1852C11.2757 14.759 10.9418 14.4136 10.5298 14.4136C10.1179 14.4136 9.78394 14.759 9.78394 15.1852C9.78394 15.6113 10.1179 15.9568 10.5298 15.9568Z" fill="#B7B9C8"/>
<path d="M15.9825 25.4219C16.3944 25.4219 16.7284 25.0764 16.7284 24.6503C16.7284 24.2241 16.3944 23.8787 15.9825 23.8787C15.5705 23.8787 15.2366 24.2241 15.2366 24.6503C15.2366 25.0764 15.5705 25.4219 15.9825 25.4219Z" fill="#B7B9C8"/>
</g>
<defs>
<clipPath id="clip0_2340_3172">
<rect width="25" height="25" fill="white" transform="translate(5 5)"/>
</clipPath>
</defs>
</svg>
