<svg width="35" height="35" viewBox="0 0 35 35" fill="none" xmlns="http://www.w3.org/2000/svg">
<rect x="5" y="5" width="25" height="25" rx="12.5" fill="#312755"/>
<g clip-path="url(#clip0_2310_5480)">
<path d="M25.2744 12.0479C25.1005 11.3897 24.5417 10.7315 23.5358 9.99881C22.7286 9.41514 21.8717 9.07983 21.1887 9.07983C21.0521 9.07983 20.9279 9.09225 20.8037 9.11709C20.4932 9.17918 20.22 9.40272 20.0462 9.73802C19.835 10.1354 19.7854 10.6694 19.922 10.9923C19.9716 11.0917 20.0337 11.2158 20.1083 11.3276C19.4501 11.725 19.0775 11.8368 19.0278 11.8492C20.7416 12.4204 22.1697 13.6126 23.0639 15.165L23.0763 15.0159C23.1136 14.6061 23.2377 14.1342 23.4116 13.6499C23.5855 13.6996 23.7593 13.7244 23.9332 13.7244C24.3927 13.7244 24.7901 13.5381 25.0384 13.2028C25.2868 12.8675 25.3862 12.4204 25.2744 12.0479Z" fill="#5E12A0"/>
<path d="M23.4857 13.2904C24.6158 13.6008 25.0753 12.7315 24.9263 12.1478C24.7649 11.5642 24.2433 10.9681 23.3243 10.2975C22.4053 9.62686 21.4739 9.35365 20.8778 9.47784C20.2817 9.60202 20.1079 10.5086 20.2569 10.8563C20.319 10.9929 20.4556 11.1916 20.6419 11.4151C20.4059 11.5766 20.1824 11.7008 19.9961 11.8125C21.1386 12.3217 22.1321 13.1165 22.8772 14.11C22.9642 13.7747 23.0883 13.4766 23.2001 13.2158C23.287 13.2283 23.3864 13.2531 23.4857 13.2904Z" fill="url(#paint0_radial_2310_5480)"/>
<path d="M17.0155 25.4609C20.8495 25.4609 23.9575 22.3529 23.9575 18.5189C23.9575 14.6849 20.8495 11.5769 17.0155 11.5769C13.1815 11.5769 10.0735 14.6849 10.0735 18.5189C10.0735 22.3529 13.1815 25.4609 17.0155 25.4609Z" fill="url(#paint1_radial_2310_5480)"/>
<path d="M24.3555 11.5762C23.4116 10.5827 22.6168 10.3219 21.6606 10.1108C20.9155 9.93696 21.1142 9.51472 22.0208 9.60165C21.5861 9.45263 21.1763 9.41538 20.8782 9.47747C20.2821 9.60165 20.1083 10.5082 20.2573 10.8559C20.3194 10.9925 20.456 11.1912 20.6423 11.4148C20.307 11.6383 20.0214 11.7998 19.7854 11.9239C19.8972 11.9736 20.0338 12.0357 20.1952 12.1226C20.6174 12.3462 21.0769 12.7187 21.0769 12.7187C20.3815 12.1226 20.5305 11.8494 21.4868 11.1788C21.7848 10.9677 22.3312 10.9925 22.8404 11.2533C23.3495 11.5141 23.9456 12.1723 23.9456 12.1723L23.3744 13.2652C23.4116 13.2776 23.4489 13.29 23.4862 13.3024C23.8463 13.4018 24.1319 13.3769 24.3555 13.29C24.6162 13.1285 25.2993 12.5821 24.3555 11.5762Z" fill="#A98698" fill-opacity="0.6"/>
<path d="M21.6477 10.7073C21.896 10.8067 22.2189 10.9805 22.6163 11.2413C23.0882 11.5518 23.4981 11.8995 23.7588 12.1727C23.3242 12.744 23.0386 13.5264 22.8647 14.0728C22.9516 14.197 23.051 14.3212 23.1379 14.4453C23.2248 14.1349 23.3739 13.6754 23.5726 13.2159C23.6222 13.2283 23.6843 13.2283 23.7464 13.2283C23.8954 13.2283 24.0693 13.2035 24.2059 13.0917C24.3053 13.0172 24.417 12.8806 24.4046 12.6322C24.4046 12.3963 24.2183 12.0982 23.8334 11.7381C23.5601 11.4773 23.1876 11.1917 22.815 10.9309C21.747 10.223 21.0019 10.0243 20.6666 10.3596C20.4431 10.5831 20.4679 10.8564 20.5424 11.0551C20.145 11.3158 19.8097 11.5021 19.5862 11.6263C19.7352 11.676 19.8718 11.7381 20.0208 11.8002C20.4182 11.5891 20.9895 11.2289 21.6477 10.7073ZM23.9948 12.4832C24.0321 12.5453 24.0445 12.6074 24.0445 12.6446C24.0445 12.7564 24.0072 12.7937 23.9824 12.8185C23.9327 12.8558 23.8334 12.8806 23.7464 12.8806C23.8209 12.7316 23.9079 12.6074 23.9948 12.4832ZM20.9274 10.6328C20.9646 10.5956 21.064 10.5707 21.2254 10.5956C21.1013 10.6949 20.9771 10.7818 20.8529 10.8688C20.8405 10.7818 20.8529 10.6949 20.9274 10.6328Z" fill="#5E12A0"/>
<path d="M17.0154 11.166C12.9545 11.166 9.66357 14.457 9.66357 18.5178C9.66357 22.5787 12.9545 25.8697 17.0154 25.8697C21.0763 25.8697 24.3672 22.5787 24.3672 18.5178C24.3672 14.457 21.0639 11.166 17.0154 11.166ZM17.0154 25.4599C13.178 25.4599 10.0734 22.3552 10.0734 18.5178C10.0734 14.6805 13.178 11.5758 17.0154 11.5758C20.8528 11.5758 23.9574 14.6805 23.9574 18.5178C23.9574 22.3552 20.8403 25.4599 17.0154 25.4599Z" fill="#5E12A0"/>
<path d="M17.0155 25.4609C20.8495 25.4609 23.9575 22.3529 23.9575 18.5189C23.9575 14.6849 20.8495 11.5769 17.0155 11.5769C13.1815 11.5769 10.0735 14.6849 10.0735 18.5189C10.0735 22.3529 13.1815 25.4609 17.0155 25.4609Z" fill="url(#paint2_linear_2310_5480)"/>
<path d="M16.9659 24.6165C13.1782 24.008 10.6075 20.4438 11.2285 16.6562C11.5017 14.9796 12.3461 13.5515 13.5383 12.5208C11.7997 13.5267 10.5082 15.2777 10.1605 17.4137C9.55194 21.2014 12.1226 24.7655 15.8979 25.374C18.009 25.7218 20.0457 25.0636 21.5483 23.772C20.2196 24.542 18.6051 24.8773 16.9659 24.6165Z" fill="#A98698" fill-opacity="0.6"/>
<path d="M18.1212 11.6767C16.3702 11.3911 14.6688 11.7885 13.2779 12.6702C13.2531 12.695 13.2282 12.7199 13.2282 12.7199C13.7622 12.397 14.5446 12.1113 14.5446 12.1113C12.5328 13.2787 11.9119 14.6075 11.9119 14.6075C12.6942 13.0924 14.9917 12.0244 16.7924 11.9499C18.5931 11.8754 19.7729 12.4094 21.2134 13.5643C22.654 14.7317 23.5233 17.1161 23.4364 19.0037C23.3619 20.8913 22.3684 22.4188 22.3684 22.4188C23.0514 21.5371 23.4612 20.8913 23.722 20.2331C23.7717 20.0344 23.8213 19.8357 23.8462 19.6246C24.4671 15.8494 21.9089 12.2852 18.1212 11.6767Z" fill="url(#paint3_linear_2310_5480)"/>
<path d="M23.6104 18.4565C23.6104 22.0952 20.6548 25.0508 17.0161 25.0508C13.3775 25.0508 10.4094 22.0952 10.4094 18.4565H23.6104Z" fill="url(#paint4_linear_2310_5480)"/>
<path d="M23.0886 18.4565C23.0886 22.0083 20.282 24.9142 16.7551 25.0508H17.0159C20.6546 25.0508 23.6102 22.0952 23.6102 18.4565H23.0886Z" fill="url(#paint5_linear_2310_5480)"/>
<path d="M11.3408 18.4565H10.4094C10.4094 22.0952 13.3651 25.0508 17.0037 25.0508C17.1652 25.0508 17.3142 25.0508 17.4632 25.0384C14.0481 24.79 11.3408 21.9338 11.3408 18.4565Z" fill="url(#paint6_linear_2310_5480)"/>
<path d="M23.598 18.5193C23.598 17.7618 22.2816 17.3271 20.5306 17.1781C19.2639 17.0787 17.9848 17.2029 16.5194 17.65C15.2527 18.0226 14.1102 17.9605 13.2781 17.8611C11.4278 17.65 10.4094 17.6252 10.4094 18.5193C10.4094 19.8108 13.0422 21.4253 16.9913 20.8664C18.9907 20.5808 20.0214 19.9971 21.2012 19.5997C22.4803 19.1775 23.598 19.1899 23.598 18.5193Z" fill="url(#paint7_linear_2310_5480)"/>
<path d="M21.0022 16.2207C21.2628 16.2207 21.4741 16.0094 21.4741 15.7488C21.4741 15.4881 21.2628 15.2769 21.0022 15.2769C20.7415 15.2769 20.5303 15.4881 20.5303 15.7488C20.5303 16.0094 20.7415 16.2207 21.0022 16.2207Z" fill="white"/>
<path d="M19.1763 15.3882C19.7936 15.3882 20.2939 14.8878 20.2939 14.2705C20.2939 13.6532 19.7936 13.1528 19.1763 13.1528C18.5589 13.1528 18.0586 13.6532 18.0586 14.2705C18.0586 14.8878 18.5589 15.3882 19.1763 15.3882Z" fill="white"/>
<path d="M22.6915 13.3776H22.6666C22.5921 13.3651 22.5425 13.2906 22.5549 13.2037C22.6666 12.6324 23.1386 12.086 23.1634 12.0612C23.2131 11.9991 23.3124 11.9991 23.3621 12.0488C23.4242 12.0984 23.4242 12.1978 23.3745 12.2475C23.3621 12.2599 22.9274 12.7691 22.8281 13.2658C22.8157 13.3403 22.7536 13.3776 22.6915 13.3776Z" fill="url(#paint8_linear_2310_5480)"/>
<path d="M21.1879 9.08026C21.8834 9.08026 22.7403 9.41556 23.5351 9.99924C24.541 10.7319 25.0998 11.3777 25.2737 12.0483C25.373 12.4333 25.2861 12.8679 25.0377 13.1908C24.7769 13.5261 24.3919 13.7124 23.9325 13.7124C23.771 13.7124 23.5972 13.6876 23.4109 13.6379C23.2991 13.9235 23.2122 14.2092 23.1501 14.4824C23.9076 15.6373 24.3547 17.0282 24.3547 18.5184C24.3547 22.5793 21.0638 25.8703 17.0029 25.8703C12.942 25.8703 9.66344 22.5793 9.66344 18.5184C9.66344 14.4575 12.9544 11.1666 17.0153 11.1666C17.9094 11.1666 18.7663 11.328 19.5611 11.6261C19.7101 11.5516 19.8964 11.4522 20.1075 11.328C20.033 11.2163 19.9585 11.1045 19.9212 10.9927C19.7846 10.6574 19.8343 10.1358 20.0454 9.73845C20.2193 9.41556 20.4801 9.19203 20.803 9.11751C20.9147 9.09268 21.0513 9.08026 21.1879 9.08026ZM21.1879 8.86914C21.0389 8.86914 20.8899 8.88156 20.7533 8.91882C20.3807 9.00575 20.0578 9.25412 19.8467 9.65151C19.6108 10.111 19.5487 10.7071 19.7101 11.0921C19.735 11.1418 19.7598 11.2038 19.7971 11.2659C19.7101 11.3156 19.6232 11.3653 19.5363 11.4025C18.7166 11.1169 17.8722 10.9679 17.0029 10.9679C15.9845 10.9679 14.991 11.1666 14.0596 11.564C13.1531 11.949 12.3459 12.4954 11.6504 13.1908C10.955 13.8863 10.4086 14.6935 10.0236 15.6C9.62619 16.5314 9.42749 17.5249 9.42749 18.5433C9.42749 19.5616 9.62619 20.5551 10.0236 21.4865C10.4086 22.393 10.955 23.2002 11.6504 23.8957C12.3459 24.5911 13.1531 25.1376 14.0596 25.5225C14.991 25.9199 15.9845 26.1186 17.0029 26.1186C18.0212 26.1186 19.0147 25.9199 19.9461 25.5225C20.8526 25.1376 21.6598 24.5911 22.3553 23.8957C23.0507 23.2002 23.5972 22.393 23.9821 21.4865C24.3795 20.5551 24.5782 19.5616 24.5782 18.5433C24.5782 17.0903 24.1684 15.687 23.386 14.4699C23.4233 14.2837 23.4854 14.0974 23.5475 13.9111C23.6717 13.9359 23.8083 13.9484 23.9325 13.9484C24.454 13.9484 24.9135 13.7372 25.2116 13.3399C25.4972 12.9673 25.609 12.4457 25.4848 12.0111C25.2861 11.2908 24.7148 10.6077 23.6592 9.85021C22.8272 9.21686 21.9206 8.86914 21.1879 8.86914Z" fill="white"/>
<path d="M17.4754 24.3304C17.6194 24.3304 17.7362 24.2137 17.7362 24.0696C17.7362 23.9256 17.6194 23.8088 17.4754 23.8088C17.3313 23.8088 17.2146 23.9256 17.2146 24.0696C17.2146 24.2137 17.3313 24.3304 17.4754 24.3304Z" fill="white" fill-opacity="0.2"/>
<path d="M17.3264 24.2313C17.227 24.132 17.227 23.9581 17.3264 23.8588C17.3388 23.8464 17.3636 23.834 17.376 23.8215C17.3388 23.834 17.3139 23.8588 17.2891 23.8836C17.1898 23.983 17.1898 24.1568 17.2891 24.2562C17.376 24.3431 17.5002 24.3555 17.612 24.2934C17.5126 24.3307 17.4009 24.3059 17.3264 24.2313Z" fill="url(#paint9_linear_2310_5480)"/>
<path d="M17.5624 23.9819C17.5898 23.9819 17.612 23.9597 17.612 23.9322C17.612 23.9048 17.5898 23.8826 17.5624 23.8826C17.5349 23.8826 17.5127 23.9048 17.5127 23.9322C17.5127 23.9597 17.5349 23.9819 17.5624 23.9819Z" fill="white" fill-opacity="0.3"/>
<path d="M19.0767 24.1449C19.2208 24.1449 19.3375 24.0281 19.3375 23.8841C19.3375 23.74 19.2208 23.6233 19.0767 23.6233C18.9327 23.6233 18.8159 23.74 18.8159 23.8841C18.8159 24.0281 18.9327 24.1449 19.0767 24.1449Z" fill="white" fill-opacity="0.2"/>
<path d="M18.9277 24.0438C18.8283 23.9445 18.8283 23.7706 18.9277 23.6713C18.9401 23.6589 18.9649 23.6465 18.9774 23.634C18.9401 23.6465 18.9153 23.6713 18.8904 23.6961C18.7911 23.7955 18.7911 23.9693 18.8904 24.0687C18.9774 24.1556 19.1015 24.168 19.2133 24.1059C19.114 24.1432 19.0022 24.1184 18.9277 24.0438Z" fill="url(#paint10_linear_2310_5480)"/>
<path d="M19.1639 23.7966C19.1914 23.7966 19.2136 23.7744 19.2136 23.7469C19.2136 23.7195 19.1914 23.6973 19.1639 23.6973C19.1365 23.6973 19.1143 23.7195 19.1143 23.7469C19.1143 23.7744 19.1365 23.7966 19.1639 23.7966Z" fill="white" fill-opacity="0.3"/>
<path d="M16.5562 23.6974C16.7482 23.6974 16.9039 23.5417 16.9039 23.3497C16.9039 23.1577 16.7482 23.002 16.5562 23.002C16.3642 23.002 16.2085 23.1577 16.2085 23.3497C16.2085 23.5417 16.3642 23.6974 16.5562 23.6974Z" fill="white" fill-opacity="0.2"/>
<path d="M16.3575 23.5735C16.2208 23.4369 16.2208 23.2133 16.3575 23.0767C16.3823 23.0519 16.4071 23.0395 16.432 23.0146C16.3823 23.0271 16.345 23.0519 16.3078 23.0892C16.1712 23.2258 16.1712 23.4493 16.3078 23.5859C16.4195 23.6977 16.5934 23.7225 16.73 23.648C16.6058 23.6977 16.4568 23.6728 16.3575 23.5735Z" fill="url(#paint11_linear_2310_5480)"/>
<path d="M16.6802 23.2499C16.7213 23.2499 16.7547 23.2164 16.7547 23.1753C16.7547 23.1342 16.7213 23.1008 16.6802 23.1008C16.6391 23.1008 16.6057 23.1342 16.6057 23.1753C16.6057 23.2164 16.6391 23.2499 16.6802 23.2499Z" fill="white" fill-opacity="0.3"/>
<path d="M18.3695 23.5223C18.5614 23.5223 18.7172 23.3666 18.7172 23.1746C18.7172 22.9826 18.5614 22.8269 18.3695 22.8269C18.1775 22.8269 18.0217 22.9826 18.0217 23.1746C18.0217 23.3666 18.1775 23.5223 18.3695 23.5223Z" fill="white" fill-opacity="0.2"/>
<path d="M18.1707 23.3987C18.0341 23.2621 18.0341 23.0385 18.1707 22.9019C18.1955 22.8771 18.2204 22.8647 18.2452 22.8398C18.1955 22.8523 18.1583 22.8771 18.121 22.9144C17.9844 23.051 17.9844 23.2745 18.121 23.4111C18.2328 23.5229 18.4066 23.5477 18.5432 23.4732C18.4191 23.5229 18.27 23.498 18.1707 23.3987Z" fill="url(#paint12_linear_2310_5480)"/>
<path d="M18.4932 23.075C18.5343 23.075 18.5677 23.0416 18.5677 23.0005C18.5677 22.9594 18.5343 22.926 18.4932 22.926C18.4521 22.926 18.4187 22.9594 18.4187 23.0005C18.4187 23.0416 18.4521 23.075 18.4932 23.075Z" fill="white" fill-opacity="0.3"/>
<path d="M15.0781 23.5734C15.3937 23.5734 15.6494 23.3177 15.6494 23.0022C15.6494 22.6867 15.3937 22.4309 15.0781 22.4309C14.7627 22.4309 14.5068 22.6867 14.5068 23.0022C14.5068 23.3177 14.7627 23.5734 15.0781 23.5734Z" fill="white" fill-opacity="0.2"/>
<path d="M14.7553 23.3607C14.5318 23.1372 14.5318 22.777 14.7553 22.5535C14.7926 22.5162 14.8299 22.4914 14.8795 22.4666C14.805 22.4914 14.7429 22.5411 14.6808 22.5907C14.4573 22.8143 14.4573 23.1744 14.6808 23.398C14.8671 23.5842 15.1527 23.6215 15.3763 23.4849C15.1652 23.5718 14.9168 23.5346 14.7553 23.3607Z" fill="url(#paint13_linear_2310_5480)"/>
<path d="M15.277 22.827C15.3456 22.827 15.4012 22.7713 15.4012 22.7028C15.4012 22.6342 15.3456 22.5786 15.277 22.5786C15.2085 22.5786 15.1528 22.6342 15.1528 22.7028C15.1528 22.7713 15.2085 22.827 15.277 22.827Z" fill="white" fill-opacity="0.3"/>
<path d="M20.1828 22.1699C20.4984 22.1699 20.7541 21.9142 20.7541 21.5986C20.7541 21.2832 20.4984 21.0273 20.1828 21.0273C19.8674 21.0273 19.6116 21.2832 19.6116 21.5986C19.6116 21.9142 19.8674 22.1699 20.1828 22.1699Z" fill="white" fill-opacity="0.2"/>
<path d="M19.8474 21.9574C19.6239 21.7338 19.6239 21.3737 19.8474 21.1502C19.8846 21.1129 19.9219 21.0881 19.9716 21.0632C19.8971 21.0881 19.835 21.1377 19.7729 21.1874C19.5493 21.411 19.5493 21.7711 19.7729 21.9946C19.9592 22.1809 20.2448 22.2182 20.4683 22.0816C20.2572 22.1685 20.0212 22.1312 19.8474 21.9574Z" fill="url(#paint14_linear_2310_5480)"/>
<path d="M20.3815 21.4234C20.4501 21.4234 20.5057 21.3678 20.5057 21.2992C20.5057 21.2307 20.4501 21.175 20.3815 21.175C20.313 21.175 20.2573 21.2307 20.2573 21.2992C20.2573 21.3678 20.313 21.4234 20.3815 21.4234Z" fill="white" fill-opacity="0.3"/>
</g>
<defs>
<radialGradient id="paint0_radial_2310_5480" cx="0" cy="0" r="1" gradientUnits="userSpaceOnUse" gradientTransform="translate(24.6998 11.3655) scale(5.55044 5.55044)">
<stop stop-color="#FFEAFF" stop-opacity="0.6"/>
<stop offset="0.68" stop-color="#A087C9"/>
<stop offset="1" stop-color="#10002F"/>
</radialGradient>
<radialGradient id="paint1_radial_2310_5480" cx="0" cy="0" r="1" gradientUnits="userSpaceOnUse" gradientTransform="translate(21.6117 13.733) scale(13.5799)">
<stop stop-color="#FFEAFF" stop-opacity="0.6"/>
<stop offset="0.68" stop-color="#A087C9"/>
<stop offset="1" stop-color="#10002F"/>
</radialGradient>
<linearGradient id="paint2_linear_2310_5480" x1="15.902" y1="25.3625" x2="18.1224" y2="11.6638" gradientUnits="userSpaceOnUse">
<stop stop-color="#81FFFF" stop-opacity="0.6"/>
<stop offset="0.62" stop-color="white" stop-opacity="0"/>
<stop offset="1" stop-color="white" stop-opacity="0"/>
</linearGradient>
<linearGradient id="paint3_linear_2310_5480" x1="21.9082" y1="13.8048" x2="16.1679" y2="19.0718" gradientUnits="userSpaceOnUse">
<stop stop-color="white" stop-opacity="0.6"/>
<stop offset="0.29" stop-color="white" stop-opacity="0.6"/>
<stop offset="0.78" stop-color="white" stop-opacity="0"/>
<stop offset="1" stop-color="white" stop-opacity="0"/>
</linearGradient>
<linearGradient id="paint4_linear_2310_5480" x1="10.415" y1="21.7498" x2="23.6072" y2="21.7498" gradientUnits="userSpaceOnUse">
<stop stop-color="#0002E9"/>
<stop offset="1" stop-color="#FF00C7"/>
</linearGradient>
<linearGradient id="paint5_linear_2310_5480" x1="24.2315" y1="19.0352" x2="17.051" y2="25.8212" gradientUnits="userSpaceOnUse">
<stop stop-color="white" stop-opacity="0.6"/>
<stop offset="0.29" stop-color="white" stop-opacity="0.6"/>
<stop offset="0.78" stop-color="white" stop-opacity="0"/>
<stop offset="1" stop-color="white" stop-opacity="0"/>
</linearGradient>
<linearGradient id="paint6_linear_2310_5480" x1="10.415" y1="21.7498" x2="17.4728" y2="21.7498" gradientUnits="userSpaceOnUse">
<stop stop-color="#000292" stop-opacity="0.7"/>
<stop offset="1" stop-color="#7D00C7" stop-opacity="0.7"/>
</linearGradient>
<linearGradient id="paint7_linear_2310_5480" x1="10.4239" y1="19.0671" x2="23.5984" y2="19.0671" gradientUnits="userSpaceOnUse">
<stop stop-color="#000292"/>
<stop offset="1" stop-color="#BE00C7"/>
</linearGradient>
<linearGradient id="paint8_linear_2310_5480" x1="23.3822" y1="12.0007" x2="22.4354" y2="13.5394" gradientUnits="userSpaceOnUse">
<stop stop-color="white" stop-opacity="0.6"/>
<stop offset="0.29" stop-color="white" stop-opacity="0.6"/>
<stop offset="0.78" stop-color="white" stop-opacity="0"/>
<stop offset="1" stop-color="white" stop-opacity="0"/>
</linearGradient>
<linearGradient id="paint9_linear_2310_5480" x1="17.213" y1="24.0729" x2="17.6074" y2="24.0729" gradientUnits="userSpaceOnUse">
<stop stop-color="white" stop-opacity="0.6"/>
<stop offset="0.29" stop-color="white" stop-opacity="0.6"/>
<stop offset="0.78" stop-color="white" stop-opacity="0"/>
<stop offset="1" stop-color="white" stop-opacity="0"/>
</linearGradient>
<linearGradient id="paint10_linear_2310_5480" x1="18.8089" y1="23.8849" x2="19.2034" y2="23.8849" gradientUnits="userSpaceOnUse">
<stop stop-color="white" stop-opacity="0.6"/>
<stop offset="0.29" stop-color="white" stop-opacity="0.6"/>
<stop offset="0.78" stop-color="white" stop-opacity="0"/>
<stop offset="1" stop-color="white" stop-opacity="0"/>
</linearGradient>
<linearGradient id="paint11_linear_2310_5480" x1="16.205" y1="23.3606" x2="16.7304" y2="23.3606" gradientUnits="userSpaceOnUse">
<stop stop-color="white" stop-opacity="0.6"/>
<stop offset="0.29" stop-color="white" stop-opacity="0.6"/>
<stop offset="0.78" stop-color="white" stop-opacity="0"/>
<stop offset="1" stop-color="white" stop-opacity="0"/>
</linearGradient>
<linearGradient id="paint12_linear_2310_5480" x1="18.0169" y1="23.1835" x2="18.5424" y2="23.1835" gradientUnits="userSpaceOnUse">
<stop stop-color="white" stop-opacity="0.6"/>
<stop offset="0.29" stop-color="white" stop-opacity="0.6"/>
<stop offset="0.78" stop-color="white" stop-opacity="0"/>
<stop offset="1" stop-color="white" stop-opacity="0"/>
</linearGradient>
<linearGradient id="paint13_linear_2310_5480" x1="14.5075" y1="23.0151" x2="15.3655" y2="23.0151" gradientUnits="userSpaceOnUse">
<stop stop-color="white" stop-opacity="0.6"/>
<stop offset="0.29" stop-color="white" stop-opacity="0.6"/>
<stop offset="0.78" stop-color="white" stop-opacity="0"/>
<stop offset="1" stop-color="white" stop-opacity="0"/>
</linearGradient>
<linearGradient id="paint14_linear_2310_5480" x1="19.6043" y1="21.6114" x2="20.4623" y2="21.6114" gradientUnits="userSpaceOnUse">
<stop stop-color="white" stop-opacity="0.6"/>
<stop offset="0.29" stop-color="white" stop-opacity="0.6"/>
<stop offset="0.78" stop-color="white" stop-opacity="0"/>
<stop offset="1" stop-color="white" stop-opacity="0"/>
</linearGradient>
<clipPath id="clip0_2310_5480">
<rect width="17.2619" height="17.2619" fill="white" transform="translate(8.86914 8.86914)"/>
</clipPath>
</defs>
</svg>
