<svg width="25" height="25" viewBox="0 0 25 25" fill="none" xmlns="http://www.w3.org/2000/svg">
<path d="M7.69231 12.4985V10.713C7.69231 10.4762 7.79361 10.2491 7.97394 10.0817C8.15426 9.91428 8.39883 9.82023 8.65385 9.82023C8.90886 9.82023 9.15343 9.91428 9.33376 10.0817C9.51408 10.2491 9.61538 10.4762 9.61538 10.713V12.4985C9.61538 12.7352 9.51408 12.9623 9.33376 13.1297C9.15343 13.2972 8.90886 13.3912 8.65385 13.3912C8.39883 13.3912 8.15426 13.2972 7.97394 13.1297C7.79361 12.9623 7.69231 12.7352 7.69231 12.4985ZM12.5 13.3912C12.755 13.3912 12.9996 13.2972 13.1799 13.1297C13.3602 12.9623 13.4615 12.7352 13.4615 12.4985V9.82023C13.4615 9.58346 13.3602 9.35638 13.1799 9.18896C12.9996 9.02154 12.755 8.92748 12.5 8.92748C12.245 8.92748 12.0004 9.02154 11.8201 9.18896C11.6398 9.35638 11.5385 9.58346 11.5385 9.82023V12.4985C11.5385 12.7352 11.6398 12.9623 11.8201 13.1297C12.0004 13.2972 12.245 13.3912 12.5 13.3912ZM16.3462 13.3912C16.6012 13.3912 16.8457 13.2972 17.0261 13.1297C17.2064 12.9623 17.3077 12.7352 17.3077 12.4985V8.92748C17.3077 8.69071 17.2064 8.46363 17.0261 8.29621C16.8457 8.12879 16.6012 8.03473 16.3462 8.03473C16.0911 8.03473 15.8466 8.12879 15.6662 8.29621C15.4859 8.46363 15.3846 8.69071 15.3846 8.92748V12.4985C15.3846 12.7352 15.4859 12.9623 15.6662 13.1297C15.8466 13.2972 16.0911 13.3912 16.3462 13.3912ZM23.0769 5.35649V16.0695H24.0385C24.2935 16.0695 24.538 16.1635 24.7184 16.3309C24.8987 16.4984 25 16.7254 25 16.9622C25 17.199 24.8987 17.4261 24.7184 17.5935C24.538 17.7609 24.2935 17.855 24.0385 17.855H13.4615V19.7967C14.1031 20.0073 14.6438 20.4217 14.9881 20.9666C15.3324 21.5116 15.4581 22.152 15.3431 22.7747C15.228 23.3973 14.8795 23.9622 14.3593 24.3694C13.839 24.7767 13.1805 25 12.5 25C11.8195 25 11.161 24.7767 10.6407 24.3694C10.1205 23.9622 9.772 23.3973 9.65693 22.7747C9.54186 22.152 9.66759 21.5116 10.0119 20.9666C10.3562 20.4217 10.8969 20.0073 11.5385 19.7967V17.855H0.961538C0.706523 17.855 0.461951 17.7609 0.281628 17.5935C0.101305 17.4261 0 17.199 0 16.9622C0 16.7254 0.101305 16.4984 0.281628 16.3309C0.461951 16.1635 0.706523 16.0695 0.961538 16.0695H1.92308V5.35649C1.41305 5.35649 0.923903 5.16837 0.563256 4.83353C0.202609 4.49868 0 4.04453 0 3.57099V1.7855C0 1.31195 0.202609 0.857805 0.563256 0.52296C0.923903 0.188114 1.41305 0 1.92308 0H23.0769C23.587 0 24.0761 0.188114 24.4367 0.52296C24.7974 0.857805 25 1.31195 25 1.7855V3.57099C25 4.04453 24.7974 4.49868 24.4367 4.83353C24.0761 5.16837 23.587 5.35649 23.0769 5.35649ZM13.4615 22.3187C13.4615 22.1421 13.4051 21.9695 13.2995 21.8227C13.1938 21.6759 13.0437 21.5615 12.868 21.4939C12.6923 21.4263 12.4989 21.4087 12.3124 21.4431C12.1259 21.4776 11.9546 21.5626 11.8201 21.6874C11.6856 21.8123 11.594 21.9714 11.5569 22.1445C11.5198 22.3177 11.5389 22.4972 11.6117 22.6603C11.6844 22.8235 11.8077 22.9629 11.9658 23.061C12.1239 23.1591 12.3098 23.2114 12.5 23.2114C12.755 23.2114 12.9996 23.1174 13.1799 22.95C13.3602 22.7825 13.4615 22.5555 13.4615 22.3187ZM1.92308 3.57099H23.0769V1.7855H1.92308V3.57099ZM21.1538 5.35649H3.84615V16.0695H21.1538V5.35649Z" fill="currentColor"/>
</svg>
