<svg width="25" height="25" viewBox="0 0 25 25" fill="none" xmlns="http://www.w3.org/2000/svg">
<path d="M12.305 14.17C11.835 14.63 11.265 15 10.635 15.23V23.5H7.63501V21.5H4.63501V18.5H7.63501V15.22C5.89501 14.6 4.63501 12.96 4.63501 11C4.63501 8.5 6.63501 6.5 9.13501 6.5H9.23501C8.76501 7.45 8.55501 8.5 8.66501 9.58C8.07501 9.78 7.63501 10.34 7.63501 11C7.63501 11.83 8.30501 12.5 9.13501 12.5C9.36501 12.5 9.58501 12.44 9.78501 12.35C10.425 13.19 11.305 13.82 12.305 14.17ZM20.365 19.94L17.605 21.1L16.825 19.26L14.065 20.43L12.895 17.66L15.665 16.5L14.395 13.5C12.545 13.58 10.745 12.55 9.98501 10.75C9.02501 8.46 10.105 5.82 12.395 4.85C12.635 4.75 12.895 4.68 13.135 4.62C12.475 3.37 11.135 2.5 9.63501 2.5C7.42501 2.5 5.63501 4.29 5.63501 6.5V6.74C5.33501 7 5.03501 7.32 4.78501 7.65C4.69501 7.28 4.63501 6.9 4.63501 6.5C4.63501 3.74 6.87501 1.5 9.63501 1.5C12.395 1.5 14.635 3.74 14.635 6.5C14.635 7.92 14.035 9.17 13.085 10.07C13.505 10.5 14.135 10.63 14.715 10.38C15.485 10.06 15.835 9.18 15.515 8.42C15.4823 8.32649 15.4351 8.23874 15.375 8.16C15.535 7.63 15.635 7.08 15.635 6.5C15.635 5.87 15.535 5.26 15.355 4.69C16.635 5.05 17.735 5.94 18.285 7.26C19.045 9.06 18.525 11.07 17.135 12.31L20.365 19.94ZM12.635 9.1C13.005 8.69 13.285 8.21 13.455 7.68C12.915 7.95 12.605 8.5 12.635 9.1Z" fill="#EBFFEE"/>
</svg>
