<svg width="25" height="25" viewBox="0 0 25 25" fill="none" xmlns="http://www.w3.org/2000/svg">
<path d="M4.14616 22C4.14616 22 2.47949 22 2.47949 20.3333C2.47949 18.6667 4.14616 13.6667 12.4795 13.6667C20.8128 13.6667 22.4795 18.6667 22.4795 20.3333C22.4795 22 20.8128 22 20.8128 22H4.14616ZM12.4795 12C13.8056 12 15.0773 11.4732 16.015 10.5355C16.9527 9.59785 17.4795 8.32608 17.4795 7C17.4795 5.67392 16.9527 4.40215 16.015 3.46447C15.0773 2.52678 13.8056 2 12.4795 2C11.1534 2 9.88164 2.52678 8.94396 3.46447C8.00628 4.40215 7.47949 5.67392 7.47949 7C7.47949 8.32608 8.00628 9.59785 8.94396 10.5355C9.88164 11.4732 11.1534 12 12.4795 12Z" fill="currentColor"/>
</svg>
