<svg width="26" height="26" viewBox="0 0 26 26" fill="none" xmlns="http://www.w3.org/2000/svg">
<path d="M25.0547 13.1035L19.6406 10.6113V3.47068C19.6381 3.32087 19.5926 3.17494 19.5095 3.05027C19.4264 2.92561 19.3092 2.82747 19.1719 2.76756L13.3125 0.0722466C13.2097 0.0246522 13.0977 0 12.9844 0C12.871 0 12.7591 0.0246522 12.6562 0.0722466L6.79687 2.76756C6.66126 2.83032 6.5465 2.93065 6.46618 3.05666C6.38587 3.18267 6.34338 3.32907 6.34375 3.47849V10.6191L0.953127 13.1035C0.817518 13.1662 0.702751 13.2666 0.622438 13.3926C0.542124 13.5186 0.499633 13.665 0.500002 13.8144V21.455C0.499633 21.6045 0.542124 21.7509 0.622438 21.8769C0.702751 22.0029 0.817518 22.1032 0.953127 22.166L6.8125 24.8613C6.91534 24.9089 7.0273 24.9335 7.14062 24.9335C7.25394 24.9335 7.36591 24.9089 7.46875 24.8613L13 22.3144L18.5312 24.8613C18.6341 24.9089 18.746 24.9335 18.8594 24.9335C18.9727 24.9335 19.0846 24.9089 19.1875 24.8613L25.0469 22.166C25.1825 22.1032 25.2972 22.0029 25.3775 21.8769C25.4579 21.7509 25.5003 21.6045 25.5 21.455V13.8144C25.501 13.6658 25.4597 13.52 25.3808 13.3941C25.302 13.2682 25.1888 13.1674 25.0547 13.1035V13.1035ZM22.8594 13.8144L18.8672 15.6347L14.875 13.8144L18.8672 11.9785L22.8594 13.8144ZM13 1.63475L16.9922 3.47068L13 5.30662L9.01562 3.47068L13 1.63475ZM7.14062 11.9707L11.1328 13.8066L7.14062 15.6347L3.14844 13.8144L7.14062 11.9707ZM12.2187 20.9472L7.14062 23.291L2.0625 20.9472V15.0332L6.8125 17.1972C6.91321 17.2425 7.02238 17.2659 7.13281 17.2659C7.24323 17.2659 7.3524 17.2425 7.45312 17.1972L12.2031 15.0097L12.2187 20.9472ZM7.92187 10.6113V4.69724L12.6719 6.88474C12.7747 6.93234 12.8867 6.95699 13 6.95699C13.1133 6.95699 13.2253 6.93234 13.3281 6.88474L18.0781 4.69724V10.6191L13 12.9629L7.92187 10.6113ZM23.9453 20.955L18.8672 23.2988L13.7812 20.955V15.0254L18.5391 17.1972C18.6387 17.2414 18.7465 17.2642 18.8555 17.2642C18.9644 17.2642 19.0722 17.2414 19.1719 17.1972L23.9219 15.0097L23.9453 20.955Z" fill="#EBFFEE"/>
</svg>
