<svg width="25" height="25" viewBox="0 0 25 25" fill="none" xmlns="http://www.w3.org/2000/svg">
<path d="M21.5277 5.55542H15.9722V6.94431H21.5277V21.5276H15.9722V22.9165H22.9166V6.94431C22.9166 6.57595 22.7703 6.22268 22.5098 5.96222C22.2494 5.70175 21.8961 5.55542 21.5277 5.55542V5.55542Z" fill="currentColor"/>
<path d="M13.8055 2.08325H4.24993C3.85947 2.08325 3.48501 2.23836 3.20891 2.51446C2.93282 2.79055 2.77771 3.16502 2.77771 3.55547V22.9166H15.2777V3.55547C15.2777 3.16502 15.1226 2.79055 14.8465 2.51446C14.5704 2.23836 14.1959 2.08325 13.8055 2.08325V2.08325ZM13.8888 21.5277H11.8055V19.4444H6.24993V21.5277H4.1666V3.55547C4.1666 3.54453 4.16875 3.53369 4.17294 3.52358C4.17713 3.51347 4.18327 3.50429 4.19101 3.49655C4.19874 3.48881 4.20793 3.48267 4.21804 3.47848C4.22815 3.4743 4.23899 3.47214 4.24993 3.47214H13.8055C13.8164 3.47214 13.8273 3.4743 13.8374 3.47848C13.8475 3.48267 13.8567 3.48881 13.8644 3.49655C13.8722 3.50429 13.8783 3.51347 13.8825 3.52358C13.8867 3.53369 13.8888 3.54453 13.8888 3.55547V21.5277Z" fill="currentColor"/>
<path d="M5.55542 5.55542H6.94431V6.94431H5.55542V5.55542Z" fill="currentColor"/>
<path d="M8.33337 5.55542H9.72226V6.94431H8.33337V5.55542Z" fill="currentColor"/>
<path d="M11.1111 5.55542H12.5V6.94431H11.1111V5.55542Z" fill="currentColor"/>
<path d="M5.55542 9.02759H6.94431V10.4165H5.55542V9.02759Z" fill="currentColor"/>
<path d="M8.33337 9.02759H9.72226V10.4165H8.33337V9.02759Z" fill="currentColor"/>
<path d="M11.1111 9.02759H12.5V10.4165H11.1111V9.02759Z" fill="currentColor"/>
<path d="M5.55542 12.5H6.94431V13.8889H5.55542V12.5Z" fill="currentColor"/>
<path d="M8.33337 12.5H9.72226V13.8889H8.33337V12.5Z" fill="currentColor"/>
<path d="M11.1111 12.5H12.5V13.8889H11.1111V12.5Z" fill="currentColor"/>
<path d="M5.55542 15.9722H6.94431V17.3611H5.55542V15.9722Z" fill="currentColor"/>
<path d="M8.33337 15.9722H9.72226V17.3611H8.33337V15.9722Z" fill="currentColor"/>
<path d="M11.1111 15.9722H12.5V17.3611H11.1111V15.9722Z" fill="currentColor"/>
<path d="M15.9722 9.02759H17.3611V10.4165H15.9722V9.02759Z" fill="currentColor"/>
<path d="M18.7499 9.02759H20.1388V10.4165H18.7499V9.02759Z" fill="currentColor"/>
<path d="M15.9722 12.5H17.3611V13.8889H15.9722V12.5Z" fill="currentColor"/>
<path d="M18.7499 12.5H20.1388V13.8889H18.7499V12.5Z" fill="currentColor"/>
<path d="M15.9722 15.9722H17.3611V17.3611H15.9722V15.9722Z" fill="currentColor"/>
<path d="M18.7499 15.9722H20.1388V17.3611H18.7499V15.9722Z" fill="currentColor"/>
</svg>
