<svg width="25" height="25" viewBox="0 0 25 25" fill="none" xmlns="http://www.w3.org/2000/svg">
<path d="M14.9062 7.34375H16.625C16.9897 7.34375 17.3394 7.48862 17.5973 7.74648C17.8551 8.00434 18 8.35408 18 8.71875V17.6562C18 18.0209 17.8551 18.3707 17.5973 18.6285C17.3394 18.8864 16.9897 19.0312 16.625 19.0312H8.375C8.01033 19.0312 7.66059 18.8864 7.40273 18.6285C7.14487 18.3707 7 18.0209 7 17.6562V8.71875C7 8.35408 7.14487 8.00434 7.40273 7.74648C7.66059 7.48862 8.01033 7.34375 8.375 7.34375H10.0938M10.4375 12.8438H14.5625M10.4375 15.5938H14.5625M10.1769 7.01031C10.2513 6.71285 10.4229 6.44877 10.6646 6.26005C10.9063 6.07133 11.2041 5.9688 11.5107 5.96875H13.4886C13.7952 5.9688 14.093 6.07133 14.3347 6.26005C14.5764 6.44877 14.748 6.71285 14.8224 7.01031L15.25 8.71875H9.75L10.1769 7.01031Z" stroke="currentColor" stroke-width="1.375" stroke-linecap="round" stroke-linejoin="round"/>
</svg>
