<svg width="25" height="25" viewBox="0 0 25 25" fill="none" xmlns="http://www.w3.org/2000/svg">
<path d="M7.5 17.5H13.5M19.5 3.5H5.5C4.96957 3.5 4.46086 3.71071 4.08579 4.08579C3.71071 4.46086 3.5 4.96957 3.5 5.5V19.5C3.5 20.0304 3.71071 20.5391 4.08579 20.9142C4.46086 21.2893 4.96957 21.5 5.5 21.5H19.5C20.0304 21.5 20.5391 21.2893 20.9142 20.9142C21.2893 20.5391 21.5 20.0304 21.5 19.5V5.5C21.5 4.96957 21.2893 4.46086 20.9142 4.08579C20.5391 3.71071 20.0304 3.5 19.5 3.5ZM7.5 7.5H17.5H7.5ZM7.5 12.5H17.5H7.5Z" stroke="currentColor" stroke-width="1.5" stroke-linecap="round" stroke-linejoin="round"/>
</svg>
