<svg width="25" height="25" viewBox="0 0 25 25" fill="none" xmlns="http://www.w3.org/2000/svg">
<path d="M6.97913 12.5001C6.98302 13.6545 7.12761 14.8042 7.40968 15.9237H11.9097V9.34033H7.34718C7.10712 10.3766 6.98367 11.4364 6.97913 12.5001V12.5001Z" fill="#EBFFEE"/>
<path d="M13.0902 9.34033V15.9237H17.5902C17.884 14.8056 18.0402 13.6559 18.0555 12.5001C18.0532 11.4366 17.9321 10.3768 17.6944 9.34033H13.0902Z" fill="#EBFFEE"/>
<path d="M12.5 1.38892C10.3025 1.38892 8.15424 2.04057 6.32703 3.26148C4.49982 4.48238 3.07568 6.2177 2.2347 8.24799C1.39373 10.2783 1.17369 12.5124 1.60242 14.6677C2.03114 16.823 3.08937 18.8029 4.64329 20.3568C6.19721 21.9107 8.17702 22.9689 10.3324 23.3976C12.4877 23.8264 14.7218 23.6063 16.7521 22.7654C18.7824 21.9244 20.5177 20.5002 21.7386 18.673C22.9595 16.8458 23.6111 14.6976 23.6111 12.5C23.6111 9.55318 22.4405 6.72702 20.3568 4.64328C18.273 2.55955 15.4469 1.38892 12.5 1.38892V1.38892ZM20.9861 17.1597H18.4723C17.9969 18.6478 17.2942 20.0533 16.3889 21.3264C15.7209 21.6176 15.022 21.8319 14.3056 21.9653C15.5886 20.5712 16.576 18.9318 17.2084 17.1459H13.0973V22.1111H11.9236V17.1597H7.7917C8.42323 18.9482 9.41071 20.59 10.6945 21.9861C9.99285 21.8542 9.30808 21.6445 8.65281 21.3611C7.74435 20.0774 7.04148 18.6599 6.56948 17.1597H4.01392C3.79207 16.755 3.59945 16.335 3.43753 15.9028H6.21531C5.95502 14.787 5.81993 13.6457 5.81253 12.5C5.81291 11.438 5.92464 10.379 6.14587 9.3403H3.30559C3.45163 8.90939 3.62799 8.48936 3.83337 8.08336H6.4792C6.97565 6.42992 7.74556 4.87131 8.75698 3.47225C9.39835 3.20649 10.0666 3.01091 10.75 2.88892C9.36855 4.37159 8.32595 6.1369 7.69448 8.06253H11.9236V2.7778H13.0973V8.08336H17.3264C16.6961 6.16081 15.6559 4.39801 14.2778 2.91669C14.9602 3.02989 15.6284 3.21614 16.2709 3.47225C17.2764 4.86121 18.0438 6.40779 18.5417 8.04864H21.1598C21.3651 8.45465 21.5415 8.87468 21.6875 9.30558H18.8681C19.0941 10.3554 19.2081 11.4262 19.2084 12.5C19.2048 13.6524 19.072 14.8008 18.8125 15.9236H21.5903C21.4185 16.3495 21.2166 16.7626 20.9861 17.1597Z" fill="#EBFFEE"/>
</svg>
