<svg width="25" height="25" viewBox="0 0 25 25" fill="none" xmlns="http://www.w3.org/2000/svg">
<path d="M12.5 6.25C12.0858 6.25 11.75 6.58579 11.75 7C11.75 7.41421 12.0858 7.75 12.5 7.75V6.25ZM12.511 7.75C12.9252 7.75 13.261 7.41421 13.261 7C13.261 6.58579 12.9252 6.25 12.511 6.25V7.75ZM10.3 10.65C9.88579 10.65 9.55 10.9858 9.55 11.4C9.55 11.8142 9.88579 12.15 10.3 12.15V10.65ZM12.5 11.4H13.25C13.25 10.9858 12.9142 10.65 12.5 10.65V11.4ZM11.75 16.9C11.75 17.3142 12.0858 17.65 12.5 17.65C12.9142 17.65 13.25 17.3142 13.25 16.9H11.75ZM10.3 16.15C9.88579 16.15 9.55 16.4858 9.55 16.9C9.55 17.3142 9.88579 17.65 10.3 17.65V16.15ZM14.7 17.65C15.1142 17.65 15.45 17.3142 15.45 16.9C15.45 16.4858 15.1142 16.15 14.7 16.15V17.65ZM22.75 12.5C22.75 18.1609 18.1609 22.75 12.5 22.75V24.25C18.9893 24.25 24.25 18.9893 24.25 12.5H22.75ZM12.5 22.75C6.83908 22.75 2.25 18.1609 2.25 12.5H0.75C0.75 18.9893 6.01065 24.25 12.5 24.25V22.75ZM2.25 12.5C2.25 6.83908 6.83908 2.25 12.5 2.25V0.75C6.01065 0.75 0.75 6.01065 0.75 12.5H2.25ZM12.5 2.25C18.1609 2.25 22.75 6.83908 22.75 12.5H24.25C24.25 6.01065 18.9893 0.75 12.5 0.75V2.25ZM12.5 7.75H12.511V6.25H12.5V7.75ZM10.3 12.15H12.5V10.65H10.3V12.15ZM11.75 11.4V16.9H13.25V11.4H11.75ZM10.3 17.65H14.7V16.15H10.3V17.65Z" fill="currentColor"/>
</svg>
