<svg width="25" height="25" viewBox="0 0 25 25" fill="none" xmlns="http://www.w3.org/2000/svg">
<path d="M20.9437 8.08539C20.938 8.05902 20.938 8.03175 20.9437 8.00539C20.9388 7.98231 20.9388 7.95847 20.9437 7.93539V7.84539L20.8837 7.69539C20.8593 7.65446 20.829 7.61739 20.7937 7.58539L20.7037 7.50539H20.6537L16.7137 5.01539L12.9937 2.71539C12.9076 2.64712 12.8091 2.59618 12.7037 2.56539H12.6237C12.5343 2.55047 12.4431 2.55047 12.3537 2.56539H12.2537C12.1375 2.59108 12.0262 2.63495 11.9237 2.69539L4.45368 7.34539L4.36368 7.41539L4.27368 7.49539L4.17368 7.56539L4.12368 7.62539L4.06368 7.77539V7.92539C4.05397 7.9917 4.05397 8.05908 4.06368 8.12539V16.8554C4.06334 17.0253 4.10632 17.1926 4.18855 17.3413C4.27079 17.49 4.38957 17.6153 4.53368 17.7054L12.0337 22.3454L12.1837 22.4054H12.2637C12.4329 22.459 12.6145 22.459 12.7837 22.4054H12.8637L13.0137 22.3454L20.4537 17.7754C20.5978 17.6853 20.7166 17.56 20.7988 17.4113C20.881 17.2626 20.924 17.0953 20.9237 16.9254V8.19539C20.9237 8.19539 20.9437 8.12539 20.9437 8.08539ZM12.4537 4.73539L14.2337 5.83539L8.64368 9.29539L6.85368 8.19539L12.4537 4.73539ZM11.4537 19.7354L5.95368 16.3754V9.98539L11.4537 13.3854V19.7354ZM12.4537 11.6254L10.5437 10.4754L16.1337 7.00539L18.0537 8.19539L12.4537 11.6254ZM18.9537 16.3454L13.4537 19.7654V13.3854L18.9537 9.98539V16.3454Z" fill="currentColor"/>
</svg>
