<svg width="25" height="25" viewBox="0 0 25 25" fill="none" xmlns="http://www.w3.org/2000/svg">
<path d="M4.36829 20.2634C3.30041 19.1955 2.45332 17.9278 1.87539 16.5326C1.29746 15.1373 1 13.6419 1 12.1317C1 10.6215 1.29746 9.12609 1.87539 7.73085C2.45332 6.33561 3.30041 5.06787 4.36829 4M20.6317 4C21.6996 5.06787 22.5467 6.33561 23.1246 7.73085C23.7025 9.12609 24 10.6215 24 12.1317C24 13.6419 23.7025 15.1373 23.1246 16.5326C22.5467 17.9278 21.6996 19.1955 20.6317 20.2634M7.98182 16.6486C6.78409 15.4505 6.11125 13.8258 6.11125 12.1317C6.11125 10.4376 6.78409 8.81288 7.98182 7.6148M17.0182 7.6148C18.2159 8.81288 18.8887 10.4376 18.8887 12.1317C18.8887 13.8258 18.2159 15.4505 17.0182 16.6486M13.7778 12.1317C13.7778 12.4706 13.6431 12.7956 13.4035 13.0352C13.1639 13.2749 12.8389 13.4095 12.5 13.4095C12.1611 13.4095 11.8361 13.2749 11.5965 13.0352C11.3569 12.7956 11.2222 12.4706 11.2222 12.1317C11.2222 11.7928 11.3569 11.4678 11.5965 11.2282C11.8361 10.9886 12.1611 10.8539 12.5 10.8539C12.8389 10.8539 13.1639 10.9886 13.4035 11.2282C13.6431 11.4678 13.7778 11.7928 13.7778 12.1317Z" stroke="currentColor" stroke-width="1.1255" stroke-linecap="round" stroke-linejoin="round"/>
</svg>
