<svg width="25" height="25" viewBox="0 0 25 25" fill="none" xmlns="http://www.w3.org/2000/svg">
<path d="M23.3953 10.1921C23.4994 9.93123 23.5266 9.64417 23.4735 9.36724C23.4204 9.09032 23.2894 8.83597 23.097 8.63637L16.2221 1.5L14.2778 3.51816L18.8057 8.21818H1.50016V11.0727H22.1249C22.3968 11.0728 22.6626 10.9892 22.8888 10.8324C23.1149 10.6757 23.2912 10.4528 23.3953 10.1921ZM1.60466 14.8079C1.50057 15.0688 1.47335 15.3558 1.52646 15.6328C1.57958 15.9097 1.71062 16.164 1.90303 16.3636L8.77793 23.5L10.7222 21.4818L6.19434 16.7818H23.4998V13.9273H2.87514C2.60317 13.927 2.33726 14.0106 2.11108 14.1673C1.8849 14.3241 1.70865 14.547 1.60466 14.8079Z" fill="#EBFFEE"/>
</svg>
