<svg width="25" height="25" viewBox="0 0 25 25" fill="none" xmlns="http://www.w3.org/2000/svg">
<path d="M10.1429 1.5V4.64286L8.57143 5.42857L6.21429 3.07143L3.07143 6.21429L5.42857 8.57143L4.64286 10.1429H1.5V14.8571H4.64286L5.42857 16.4286L3.07143 18.7857L6.21429 21.9286L8.57143 19.5714L10.1429 20.3571V23.5H14.8571V20.3571L16.4286 19.5714L18.7857 21.9286L21.9286 18.7857L19.5714 16.4286L20.3571 14.8571H23.5V10.1429H20.3571L19.5714 8.57143L21.9286 6.21429L18.7857 3.07143L16.4286 5.42857L14.8571 4.64286V1.5H10.1429Z" stroke="currentColor" stroke-linecap="round" stroke-linejoin="round"/>
<path d="M12.5 15.6428C14.2358 15.6428 15.6429 14.2357 15.6429 12.5C15.6429 10.7642 14.2358 9.35712 12.5 9.35712C10.7643 9.35712 9.35716 10.7642 9.35716 12.5C9.35716 14.2357 10.7643 15.6428 12.5 15.6428Z" stroke="currentColor" stroke-linecap="round" stroke-linejoin="round"/>
</svg>
