<svg width="25" height="25" viewBox="0 0 25 25" fill="none" xmlns="http://www.w3.org/2000/svg">
<path d="M21.24 5H3.64C3.40661 5 3.18278 4.89464 3.01775 4.70711C2.85271 4.51957 2.76 4.26522 2.76 4C2.76 3.73478 2.85271 3.48043 3.01775 3.29289C3.18278 3.10536 3.40661 3 3.64 3H18.6C18.8334 3 19.0572 2.89464 19.2223 2.70711C19.3873 2.51957 19.48 2.26522 19.48 2C19.48 1.73478 19.3873 1.48043 19.2223 1.29289C19.0572 1.10536 18.8334 1 18.6 1H3.64C2.94072 1.00329 2.27091 1.32042 1.77644 1.88232C1.28197 2.44421 1.0029 3.20536 1 4V20C1.0029 20.7946 1.28197 21.5558 1.77644 22.1177C2.27091 22.6796 2.94072 22.9967 3.64 23H21.24C21.7068 23 22.1544 22.7893 22.4845 22.4142C22.8146 22.0391 23 21.5304 23 21V7C23 6.46957 22.8146 5.96086 22.4845 5.58579C22.1544 5.21071 21.7068 5 21.24 5ZM21.24 21H3.64C3.40661 21 3.18278 20.8946 3.01775 20.7071C2.85271 20.5196 2.76 20.2652 2.76 20V6.825C3.04223 6.94068 3.33997 6.99989 3.64 7H21.24V21ZM15.96 14C15.96 13.7033 16.0374 13.4133 16.1825 13.1666C16.3275 12.92 16.5337 12.7277 16.7749 12.6142C17.0161 12.5007 17.2815 12.4709 17.5375 12.5288C17.7936 12.5867 18.0288 12.7296 18.2134 12.9393C18.398 13.1491 18.5237 13.4164 18.5746 13.7074C18.6256 13.9983 18.5994 14.2999 18.4995 14.574C18.3996 14.8481 18.2304 15.0824 18.0134 15.2472C17.7963 15.412 17.5411 15.5 17.28 15.5C16.9299 15.5 16.5942 15.342 16.3466 15.0607C16.0991 14.7794 15.96 14.3978 15.96 14Z" fill="#EBFFEE"/>
</svg>
